<svg width="308" height="401" viewBox="0 0 308 401" fill="none" xmlns="http://www.w3.org/2000/svg">
<path d="M122.604 14.2246L236.401 32.5135L285.849 121.926L277.721 200.5L301.428 215.402V246.561L293.977 268.914L275.688 281.784V293.976L261.464 331.909L228.273 361.713L195.759 392.872H157.15H128.7L102.96 384.743L79.93 361.713L44.0297 326.49L33.1919 301.427L28.4503 276.365L12.1936 268.236L4.06519 242.497L8.12937 214.047L17.6125 209.983L29.805 218.111L33.1919 208.628L28.4503 191.694L14.4949 121.926L122.604 14.2246Z" fill="#94B1FD"/>
<path fill-rule="evenodd" clip-rule="evenodd" d="M196.27 201.101C195.847 202.21 195.619 203.418 195.619 204.658C195.619 210.206 200.116 214.71 205.655 214.71C211.195 214.71 215.692 210.206 215.692 204.658C215.692 203.059 215.334 201.558 214.649 200.219C219.016 200.709 223.448 201.655 227.912 203.124C229.802 203.744 231.79 202.471 232.344 200.317C232.898 198.163 231.79 195.911 229.867 195.291C222.633 192.909 215.399 191.734 208.165 191.767C200.963 191.767 193.826 192.974 186.755 195.324C184.865 195.944 183.757 198.196 184.311 200.35C184.865 202.504 186.853 203.744 188.743 203.124C191.219 202.276 193.761 201.59 196.27 201.101ZM279.66 274.108V227.21C281.648 218.692 285.395 214.318 289.599 213.535C304.198 210.826 301.852 270.845 279.66 274.108ZM270.34 167.257C191.839 110.959 143.545 64.3538 78.1432 105.835C54.8762 120.586 47.6419 150.84 37.0186 167.714C37.0186 211.022 37.0186 254.265 37.0186 297.639C43.2101 327.371 50.8354 329.852 69.8336 348.487L102.811 380.797C108.775 385.725 115.488 388.597 122.624 390.294C135.138 393.232 177.272 394.178 189.036 390.392C196.205 388.075 202.951 383.832 209.207 377.24L233.159 353.937C256.295 331.451 272.002 321.758 270.34 284.52C270.34 245.356 270.34 206.388 270.34 167.257ZM111.186 159.881C114.347 159.75 116.987 162.198 117.117 165.331C117.247 168.497 114.803 171.14 111.675 171.271C102.942 171.663 95.4794 173.458 89.2227 176.493C83.129 179.43 78.1758 183.64 74.2328 188.96C72.3428 191.506 68.7908 192.028 66.249 190.135C63.7072 188.242 63.1858 184.685 65.0759 182.139C70.1268 175.318 76.4813 169.965 84.2695 166.18C91.8623 162.524 100.824 160.37 111.186 159.881ZM201.126 170.161C197.965 170.161 195.423 167.583 195.456 164.417C195.456 161.252 198.03 158.706 201.191 158.739C210.641 158.771 219.244 160.566 227 164.189C234.821 167.877 241.664 173.392 247.464 180.931C249.387 183.444 248.931 187.002 246.422 188.96C243.945 190.885 240.36 190.429 238.405 187.916C233.745 181.845 228.303 177.439 222.144 174.535C215.92 171.63 208.914 170.194 201.126 170.161ZM198.389 309.095C193.501 310.759 188.45 312.163 183.236 313.305C177.891 314.774 172.971 315.687 168.604 315.785C163.618 315.883 159.35 314.969 155.928 312.685C154.885 311.999 153.94 311.249 153.125 310.465C152.311 311.249 151.366 311.999 150.323 312.685C146.901 314.969 142.633 315.883 137.647 315.785C133.28 315.687 128.359 314.806 123.015 313.305C117.801 312.163 112.783 310.759 107.862 309.095C102.974 307.43 98.2167 305.505 93.5568 303.351C91.3083 302.306 90.3958 299.793 91.5364 297.705C92.2207 296.464 93.459 295.681 94.8277 295.453C97.3043 295.061 99.292 294.8 101.149 294.539L101.312 294.506C107.308 293.69 111.903 293.038 117.541 290.786C119.137 290.166 120.669 289.448 122.233 288.73C131.195 284.585 141.003 280.016 150.812 287.816C151.659 288.501 152.441 289.187 153.125 289.937C153.81 289.187 154.592 288.501 155.439 287.816C165.215 280.016 175.056 284.552 184.018 288.73C185.582 289.448 187.114 290.166 188.71 290.786C194.315 293.038 198.943 293.69 204.939 294.506L205.101 294.539C206.959 294.8 208.947 295.061 211.423 295.453C212.792 295.681 214.063 296.464 214.715 297.705C215.855 299.761 214.943 302.306 212.694 303.351C208.034 305.537 203.277 307.43 198.389 309.095ZM141.296 270.845C139.309 269.18 139.048 266.243 140.71 264.285C142.372 262.294 145.305 262.033 147.26 263.697C149.574 265.656 151.822 266.7 153.94 266.7C156.091 266.733 158.437 265.754 160.946 263.665C162.934 262.033 165.867 262.327 167.496 264.318C169.126 266.308 168.832 269.246 166.845 270.877C162.543 274.402 158.209 276.067 153.81 276.034C149.476 275.969 145.272 274.206 141.296 270.845ZM126.698 332.397C124.319 331.124 123.406 328.154 124.677 325.772C125.948 323.39 128.913 322.476 131.292 323.749C138.82 327.763 146.25 329.819 153.549 329.819C160.849 329.819 168.148 327.828 175.48 323.781C177.859 322.476 180.824 323.357 182.128 325.707C183.431 328.089 182.551 331.059 180.205 332.365C171.439 337.227 162.543 339.61 153.549 339.577C144.555 339.577 135.594 337.162 126.698 332.397ZM27.8617 274.108V227.21C25.8739 218.692 22.1265 214.318 17.9228 213.535C3.29127 210.826 5.67011 270.845 27.8617 274.108ZM29.1978 282.17C28.3831 282.3 27.5359 282.333 26.6886 282.202C11.3076 279.95 3.03057 261.087 1.04278 243.039C0.488802 238.078 0.391042 233.15 0.749497 228.711C1.10795 223.979 1.9878 219.606 3.42162 216.081C6.48478 208.379 11.7638 204.103 19.4217 205.507C23.0715 206.192 26.4279 208.085 29.2304 211.283V205.017L22.9737 201.492C21.2466 184.423 16.8474 163.438 14.0775 144.019C13.6213 140.886 13.3606 137.851 13.1977 134.849C6.45219 136.219 0.977605 129.921 0 112.264V83.8052C4.10594 49.7653 19.9431 36.0906 45.9148 40.007C70.6482 14.1263 105.549 -0.331688 153.582 0.0599502C207.122 -0.984417 252.743 11.5154 285.884 45.4899C303.318 62.8525 310.715 89.7776 306.251 128.093C306.446 135.371 306.023 142.975 304.85 151.004C302.373 168.268 299.18 186.61 298.202 200.089L289.892 205.278C296.605 204.789 301.298 208.966 304.133 216.081C305.534 219.638 306.414 223.979 306.805 228.711C307.131 233.15 307.033 238.045 306.512 243.039C304.524 261.087 296.247 279.95 280.866 282.202C280.182 282.3 279.53 282.3 278.878 282.235V284.52C278.878 284.617 278.878 284.715 278.878 284.813C280.344 320.909 267.212 333.278 246.91 352.436C244.401 354.818 241.729 357.299 239.252 359.747L215.431 382.918C211.88 386.639 208.165 389.74 204.287 392.253C200.344 394.798 196.238 396.756 191.936 398.127C185.582 400.183 172.515 401.032 159.121 400.999C144.132 400.966 128.327 399.922 121.158 398.225C117.052 397.246 113.044 395.94 109.231 394.145C105.386 392.35 101.638 390.033 98.0537 387.063C97.8582 386.9 97.6953 386.737 97.5324 386.574L64.5545 354.264C61.7194 351.49 58.8844 348.846 56.3426 346.464C41.9718 333.05 35.1612 326.718 29.4585 299.239C29.3281 298.684 29.2956 298.129 29.2956 297.574H29.1978V282.17ZM79.8051 204.103C77.9477 204.821 75.8947 203.712 75.243 201.558C74.5912 199.436 75.6014 197.119 77.4589 196.368C84.6932 193.529 91.9274 192.224 99.1943 192.289C106.429 192.354 113.63 193.757 120.832 196.368C122.722 197.054 123.765 199.338 123.146 201.46C122.559 203.581 120.539 204.789 118.681 204.103C116.302 203.222 113.924 202.504 111.512 201.949C111.74 202.798 111.871 203.712 111.871 204.658C111.871 210.206 107.374 214.71 101.834 214.71C96.2941 214.71 91.7971 210.206 91.7971 204.658C91.7971 203.287 92.0578 201.982 92.5466 200.807C88.3429 201.329 84.074 202.439 79.8051 204.103Z" fill="#1D2569"/>
</svg>
